<?xml version="1.0" encoding="UTF-8" standalone="no"?>
<!-- Created with Inkscape (http://www.inkscape.org/) -->

<svg
   xmlns:dc="http://purl.org/dc/elements/1.1/"
   xmlns:cc="http://creativecommons.org/ns#"
   xmlns:rdf="http://www.w3.org/1999/02/22-rdf-syntax-ns#"
   xmlns:svg="http://www.w3.org/2000/svg"
   xmlns="http://www.w3.org/2000/svg"
   xmlns:sodipodi="http://sodipodi.sourceforge.net/DTD/sodipodi-0.dtd"
   xmlns:inkscape="http://www.inkscape.org/namespaces/inkscape"
   width="210mm"
   height="297mm"
   viewBox="0 0 210 297"
   version="1.1"
   id="svg8"
   inkscape:version="0.92.3 (2405546, 2018-03-11)"
   sodipodi:docname="Home.svg">
  <defs
     id="defs2" />
  <sodipodi:namedview
     id="base"
     pagecolor="#ffffff"
     bordercolor="#666666"
     borderopacity="1.0"
     inkscape:pageopacity="0.0"
     inkscape:pageshadow="2"
     inkscape:zoom="0.2653722"
     inkscape:cx="955.23864"
     inkscape:cy="668.3617"
     inkscape:document-units="mm"
     inkscape:current-layer="layer1"
     showgrid="false"
     showguides="true"
     inkscape:guide-bbox="true"
     inkscape:snap-global="true"
     inkscape:snap-bbox="true"
     inkscape:bbox-paths="true"
     inkscape:bbox-nodes="true"
     inkscape:snap-bbox-edge-midpoints="true"
     inkscape:measure-start="0,0"
     inkscape:measure-end="0,0"
     inkscape:window-width="1366"
     inkscape:window-height="720"
     inkscape:window-x="0"
     inkscape:window-y="20"
     inkscape:window-maximized="1">
    <sodipodi:guide
       position="0.49851364,184.45006"
       orientation="1,0"
       id="guide14"
       inkscape:locked="false" />
    <sodipodi:guide
       position="115.15665,170.49167"
       orientation="0,1"
       id="guide16"
       inkscape:locked="false" />
    <sodipodi:guide
       position="110.17151,238.28953"
       orientation="1,0"
       id="guide18"
       inkscape:locked="false" />
  </sodipodi:namedview>
  <metadata
     id="metadata5">
    <rdf:RDF>
      <cc:Work
         rdf:about="">
        <dc:format>image/svg+xml</dc:format>
        <dc:type
           rdf:resource="http://purl.org/dc/dcmitype/StillImage" />
        <dc:title></dc:title>
      </cc:Work>
    </rdf:RDF>
  </metadata>
  <g
     inkscape:label="Camada 1"
     inkscape:groupmode="layer"
     id="layer1">
    <path
       id="path855"
       style="fill:#ffffff;stroke:#000000;stroke-width:23.25065994;stroke-miterlimit:4;stroke-dasharray:none"
       d="M 156.64443,946.62174 C 143.102,939.94883 144.193,959.93966 143.14662,699.29703 L 142.20455,464.63716 93.742933,463.69509 45.281319,462.75302 162.28184,329.92072 C 353.94792,112.3196 418.35783,39.75634 419.74503,39.866468 c 0.72223,0.05734 3.37251,2.706208 5.88952,5.886382 l 4.57638,5.782134 -4.32827,-1.373737 c -2.44363,-0.77558 -4.02609,-0.622758 -3.6343,0.350973 0.38168,0.948591 49.97293,63.56766 110.20277,139.1535 60.22985,75.58583 134.07052,168.37588 164.09039,206.20011 l 54.58161,68.77133 -32.20019,0.94208 -32.20017,0.94207 -0.94208,234.07406 -0.94207,234.07407 -7.09569,7.09663 -7.09572,7.09664 -92.20353,0.52264 -92.20355,0.52266 -0.5605,-85.62074 -0.5605,-85.62072 -5.71593,-8.16715 c -3.50724,-5.01127 -9.61922,-10.27197 -15.81729,-13.61426 l -10.10136,-5.44712 -35.62197,0.26282 c -19.59207,0.14451 -39.4801,1.23432 -44.19559,2.42169 -11.07405,2.78848 -22.13325,13.97315 -24.97486,25.25819 -1.32915,5.2786 -2.05773,36.89593 -2.05773,89.29805 v 81.12601 l -91.85213,-0.043 c -81.35676,-0.0381 -92.57035,-0.3968 -98.13784,-3.14013 z m -3.13501,12.79999 c -4.14512,-1.91914 -9.82323,-5.92788 -12.61803,-8.90832 -11.5773,-12.34632 -10.93379,2.16138 -10.93379,-246.50155 V 476.93938 L 73.423642,476.4407 16.889689,475.94204 215.59609,250.24459 C 324.88459,126.111 414.97464,24.407145 415.79618,24.236035 416.61771,24.064926 498.35577,126.05271 597.43629,250.87555 l 180.14643,226.95064 -39.30651,0.50851 -39.30649,0.50851 V 705.9204 c 0,219.74672 -0.11607,227.30286 -3.59575,234.06768 -4.62559,8.99265 -12.47544,16.3897 -21.30867,20.07955 -6.02853,2.51828 -20.67619,2.92618 -105.07704,2.92618 h -98.07201 l 1.44901,-5.18141 c 0.79695,-2.84977 1.449,-42.91142 1.449,-89.0259 0,-80.73118 -0.1415,-84.08936 -3.8114,-90.43901 -2.25263,-3.89751 -7.26133,-8.35909 -12.24695,-10.90915 -8.05659,-4.1208 -10.05903,-4.29009 -44.5734,-3.76829 -39.55729,0.59804 -41.07035,1.0037 -50.41645,13.51686 -3.76756,5.04426 -3.90063,7.72901 -4.41241,89.02507 -0.30787,48.90622 0.21753,86.52284 1.26125,90.30291 l 1.78892,6.47892 -100.17891,-0.0415 C 167.73553,962.91381 160.54275,962.678 153.50942,959.42169 Z M 416.39648,11.335938 218.98047,235.55078 122.46875,345.16406 0,484.25781 l 122.46875,0.29102 v 438.71484 c 0,26.09541 21.00809,47.10352 47.10352,47.10352 h 216.80664 c -11.78847,-0.55412 -21.11329,-10.22591 -21.11329,-22.15625 V 792.80273 c 0,-12.28883 9.89283,-22.18164 22.18165,-22.18164 h 57.43359 c 12.28879,0 22.18164,9.89281 22.18164,22.18164 v 155.40821 c 0,11.93034 -9.32482,21.60213 -21.11328,22.15625 h 213.50195 c 26.09541,0 47.10352,-21.00811 47.10352,-47.10352 V 485.9375 l 86.66992,0.20508 L 706.55469,376.9375 594.34375,235.55078 Z m 29.55274,959.031252 h -59.57031 c 0.35414,0.0151 0.70987,0.0273 1.06836,0.0273 h 57.43359 c 0.3583,0 0.71414,-0.0122 1.06836,-0.0273 z"
       transform="scale(0.26458333)" />
  </g>
</svg>
